# xmcd
#
# Track frame offsets:
#	150
#	22181
#	41914
#	62302
#	75356
#	88201
#	104327
#	120828
#	149690
#	163639
#	180452
#	198077
#
# Disc length: 2855 seconds
#
# Revision: 2361911418
# Processed by: cddbd v1.5.2PL0 Copyright (c) Steve Scherf et al.
# Submitted via: EZCDAudioConverter 8.5.0.1
#
DISCID=970b250c
DTITLE=Dudley taft - Simple life
DYEAR=2019
DGENRE=Blues Rock
TTITLE0=Give me a song
TTITLE1=Simple life
TTITLE2=I can't live without you
TTITLE3=In your way
TTITLE4=Don't let them get away
TTITLE5=Death by bliss
TTITLE6=Bombs away
TTITLE7=If heartaches were nickels
TTITLE8=Never fade
TTITLE9=Pouring down
TTITLE10=Shine
TTITLE11=Back to you
EXTD=
EXTT0=
EXTT1=
EXTT2=
EXTT3=
EXTT4=
EXTT5=
EXTT6=
EXTT7=
EXTT8=
EXTT9=
EXTT10=
EXTT11=
PLAYORDER=
